<svg width="55" height="77" viewBox="0 0 55 77" fill="none" xmlns="http://www.w3.org/2000/svg">
<path d="M25.8968 60.48L24.1774 62.1994L24.1774 62.1994L25.8968 60.48ZM25.3768 32.985H27.8084V28.0522L23.8959 31.0564L25.3768 32.985ZM18.0968 38.575L19.4912 40.567L19.5352 40.5363L19.5777 40.5036L18.0968 38.575ZM16.7968 38.9L16.0981 41.229L16.2077 41.2619L16.3199 41.2844L16.7968 38.9ZM15.6268 38.055L13.702 39.5408L13.7149 39.5575L13.7281 39.574L15.6268 38.055ZM9.90681 30.645L7.73194 31.7324L7.83761 31.9438L7.982 32.1308L9.90681 30.645ZM9.71181 29.28L12.1042 29.715L12.1074 29.6974L12.1103 29.6797L9.71181 29.28ZM10.4918 28.11L11.7429 30.1951L11.8676 30.1202L11.9824 30.0311L10.4918 28.11ZM26.1568 15.955L27.6474 17.8761L27.6617 17.865L27.6758 17.8537L26.1568 15.955ZM26.8068 15.63L27.2837 18.0144L27.5026 17.9706L27.7099 17.8877L26.8068 15.63ZM27.1318 58.5684C27.1955 58.5684 27.2966 58.5816 27.4092 58.629C27.5203 58.6758 27.5889 58.7333 27.6162 58.7606L24.1774 62.1994C24.9656 62.9875 25.99 63.4316 27.1318 63.4316V58.5684ZM27.6162 58.7606C27.6435 58.7879 27.701 58.8565 27.7478 58.9677C27.7952 59.0802 27.8084 59.1813 27.8084 59.245H22.9452C22.9452 60.3869 23.3893 61.4113 24.1774 62.1994L27.6162 58.7606ZM27.8084 59.245V32.985H22.9452V59.245H27.8084ZM23.8959 31.0564L16.6159 36.6464L19.5777 40.5036L26.8577 34.9136L23.8959 31.0564ZM16.7024 36.583C16.6854 36.5949 16.7376 36.5546 16.8571 36.5248C16.9858 36.4926 17.1334 36.4876 17.2737 36.5156L16.3199 41.2844C17.531 41.5266 18.6295 41.1702 19.4912 40.567L16.7024 36.583ZM17.4955 36.571C17.5233 36.5793 17.5476 36.5893 17.5674 36.5992C17.587 36.609 17.5989 36.617 17.603 36.62C17.6109 36.6257 17.5822 36.6068 17.5256 36.536L13.7281 39.574C14.3125 40.3045 15.0938 40.9277 16.0981 41.229L17.4955 36.571ZM17.5516 36.5692L11.8316 29.1592L7.982 32.1308L13.702 39.5408L17.5516 36.5692ZM12.0817 29.5576C12.0839 29.5619 12.0963 29.5899 12.1027 29.6349C12.1091 29.6798 12.105 29.7102 12.1042 29.715L7.31945 28.845C7.13867 29.8393 7.27999 30.8285 7.73194 31.7324L12.0817 29.5576ZM12.1103 29.6797C12.1042 29.7167 12.0783 29.8213 11.995 29.9463C11.91 30.0738 11.8104 30.1546 11.7429 30.1951L9.24077 26.0249C8.16696 26.6692 7.51132 27.6922 7.31332 28.8802L12.1103 29.6797ZM11.9824 30.0311L27.6474 17.8761L24.6662 14.0339L9.00117 26.1889L11.9824 30.0311ZM27.6758 17.8537C27.6648 17.8625 27.5333 17.9644 27.2837 18.0144L26.3299 13.2456C25.647 13.3822 25.0821 13.7008 24.6378 14.0563L27.6758 17.8537ZM27.7099 17.8877C27.6367 17.9169 27.5846 17.9276 27.5641 17.931C27.544 17.9343 27.5495 17.9316 27.5868 17.9316V13.0684C27.0624 13.0684 26.4796 13.142 25.9037 13.3723L27.7099 17.8877ZM27.5868 17.9316H39.8718V13.0684H27.5868V17.9316ZM39.8718 17.9316C39.8081 17.9316 39.707 17.9184 39.5945 17.871C39.4833 17.8242 39.4147 17.7667 39.3874 17.7394L42.8262 14.3006C42.0381 13.5125 41.0137 13.0684 39.8718 13.0684V17.9316ZM39.3874 17.7394C39.3601 17.7121 39.3026 17.6435 39.2558 17.5323C39.2084 17.4198 39.1952 17.3187 39.1952 17.255H44.0584C44.0584 16.1131 43.6143 15.0887 42.8262 14.3006L39.3874 17.7394ZM39.1952 17.255V59.245H44.0584V17.255H39.1952ZM39.1952 59.245C39.1952 59.1813 39.2084 59.0802 39.2558 58.9677C39.3026 58.8565 39.3601 58.7879 39.3874 58.7606L42.8262 62.1994C43.6143 61.4113 44.0584 60.3869 44.0584 59.245H39.1952ZM39.3874 58.7606C39.4147 58.7333 39.4833 58.6758 39.5945 58.629C39.707 58.5816 39.8081 58.5684 39.8718 58.5684V63.4316C41.0137 63.4316 42.0381 62.9875 42.8262 62.1994L39.3874 58.7606ZM39.8718 58.5684H27.1318V63.4316H39.8718V58.5684Z" fill="#4BA5E7"/>
</svg>
