<svg width="55" height="77" viewBox="0 0 55 77" fill="none" xmlns="http://www.w3.org/2000/svg">
<path d="M16.8506 60.285L17.6307 57.9819L16.8506 60.285ZM10.3506 56.84L8.73214 58.6547L8.75794 58.6777L8.78437 58.6999L10.3506 56.84ZM6.77564 52.42L4.57689 53.4583L4.59445 53.4955L4.61327 53.5321L6.77564 52.42ZM5.60564 48.13H3.17406V48.1705L3.17541 48.211L5.60564 48.13ZM5.99564 47.155L7.71503 48.8744L5.99564 47.155ZM21.4006 47.025L19.844 48.893L20.0084 49.03L20.1942 49.1362L21.4006 47.025ZM22.3106 47.74L20.5913 49.4594L20.6692 49.5374L20.754 49.608L22.3106 47.74ZM23.2206 48.39L21.9319 50.452L21.9319 50.452L23.2206 48.39ZM24.5856 48.91L24.0389 51.2793L24.1268 51.2996L24.2159 51.3133L24.5856 48.91ZM30.0456 48.065L31.765 49.7844L30.0456 48.065ZM29.9806 43.45L28.6031 45.4537L28.6738 45.5023L28.7478 45.5459L29.9806 43.45ZM17.4356 42.215L15.7163 43.9344L15.7163 43.9344L17.4356 42.215ZM17.3056 34.09L15.2542 32.7845L15.237 32.8115L15.2206 32.839L17.3056 34.09ZM18.2156 33.115L17.0491 30.9815L17.0291 30.9925L17.0092 31.0038L18.2156 33.115ZM27.2506 28.175L28.4172 30.3085L27.2506 25.7434V28.175ZM44.6706 16.02L42.9512 17.7394L42.9513 17.7394L44.6706 16.02ZM44.8006 27.135L46.8857 28.386L46.9114 28.3432L46.9353 28.2994L44.8006 27.135ZM43.8906 28.11L42.6019 26.048L42.5716 26.067L42.5418 26.0868L43.8906 28.11ZM36.2856 33.18L34.9368 31.1568L33.8541 31.8787V33.18H36.2856ZM36.2856 33.375H33.8541V35.292L35.7182 35.7394L36.2856 33.375ZM42.2006 35.715L43.429 33.6165V33.6165L42.2006 35.715ZM46.4256 40.005L44.3144 41.2114L44.3207 41.2224L44.3272 41.2334L46.4256 40.005ZM45.1906 54.63L43.3168 53.0804L43.3136 53.0842L45.1906 54.63ZM37.6506 59.83L38.5214 62.1003L38.5297 62.0972L38.5379 62.0939L37.6506 59.83ZM26.7306 59.2184C23.0038 59.2184 19.9916 58.7816 17.6307 57.9819L16.0706 62.5881C19.083 63.6084 22.6575 64.0816 26.7306 64.0816V59.2184ZM17.6307 57.9819C15.1451 57.14 13.2706 56.12 11.9169 54.9801L8.78437 58.6999C10.724 60.3333 13.1829 61.61 16.0706 62.5881L17.6307 57.9819ZM11.9691 55.0253C10.5331 53.7446 9.55106 52.5 8.93801 51.3079L4.61327 53.5321C5.56022 55.3734 6.96147 57.0754 8.73214 58.6547L11.9691 55.0253ZM8.97439 51.3817C8.33551 50.0288 8.06518 48.9282 8.03587 48.049L3.17541 48.211C3.23277 49.9318 3.74244 51.6912 4.57689 53.4583L8.97439 51.3817ZM8.03722 48.13C8.03722 48.2091 8.0231 48.3411 7.9608 48.4968C7.89737 48.6554 7.80591 48.7835 7.71503 48.8744L4.27625 45.4356C3.53044 46.1814 3.17406 47.1385 3.17406 48.13H8.03722ZM7.71503 48.8744C7.68074 48.9087 7.59682 48.9806 7.45776 49.0415C7.31425 49.1042 7.16555 49.1316 7.03564 49.1316V44.2684C5.93322 44.2684 4.98552 44.7263 4.27625 45.4356L7.71503 48.8744ZM7.03564 49.1316H20.1006V44.2684H7.03564V49.1316ZM20.1006 49.1316C20.2709 49.1316 20.3219 49.148 20.2909 49.1402C20.2611 49.1328 20.0702 49.0815 19.844 48.893L22.9573 45.157C22.0279 44.3825 20.8738 44.2684 20.1006 44.2684V49.1316ZM20.1942 49.1362C20.273 49.1812 20.4074 49.2756 20.5913 49.4594L24.03 46.0206C23.6072 45.5978 23.1349 45.2155 22.607 44.9138L20.1942 49.1362ZM20.754 49.608C21.1141 49.9081 21.5102 50.1884 21.9319 50.452L24.5094 46.328C24.2378 46.1583 24.0272 46.0053 23.8673 45.872L20.754 49.608ZM21.9319 50.452C22.5803 50.8572 23.3128 51.1117 24.0389 51.2793L25.1324 46.5407C24.7319 46.4483 24.5543 46.3561 24.5094 46.328L21.9319 50.452ZM24.2159 51.3133C24.9516 51.4265 25.8255 51.4716 26.7956 51.4716V46.6084C25.9457 46.6084 25.3464 46.5669 24.9554 46.5067L24.2159 51.3133ZM26.7956 51.4716C28.5591 51.4716 30.4389 51.1105 31.765 49.7844L28.3263 46.3456C28.3442 46.3277 28.2909 46.394 28.0469 46.4672C27.7941 46.5431 27.3925 46.6084 26.7956 46.6084V51.4716ZM31.765 49.7844C32.8998 48.6496 33.5172 47.2135 33.5172 45.595H28.6541C28.6541 45.8831 28.5781 46.0937 28.3263 46.3456L31.765 49.7844ZM33.5172 45.595C33.5172 43.9066 32.8285 42.3042 31.2135 41.3541L28.7478 45.5459C28.7548 45.55 28.7382 45.5411 28.712 45.5138C28.685 45.4858 28.6627 45.4537 28.6478 45.4248C28.6171 45.3653 28.6541 45.3931 28.6541 45.595H33.5172ZM31.3582 41.4463C30.0641 40.5566 28.4099 40.3034 26.7956 40.3034V45.1666C28.0413 45.1666 28.5105 45.3901 28.6031 45.4537L31.3582 41.4463ZM26.7956 40.3034H18.6706V45.1666H26.7956V40.3034ZM18.6706 40.3034C18.7343 40.3034 18.8355 40.3166 18.948 40.364C19.0592 40.4108 19.1277 40.4683 19.155 40.4956L15.7163 43.9344C16.5044 44.7225 17.5288 45.1666 18.6706 45.1666V40.3034ZM19.155 40.4956C19.1823 40.5229 19.2399 40.5915 19.2867 40.7027C19.3341 40.8152 19.3472 40.9163 19.3472 40.98H14.4841C14.4841 42.1219 14.9281 43.1463 15.7163 43.9344L19.155 40.4956ZM19.3472 40.98V35.715H14.4841V40.98H19.3472ZM19.3472 35.715C19.3472 35.3818 19.4137 35.3027 19.3907 35.341L15.2206 32.839C14.6776 33.7439 14.4841 34.7482 14.4841 35.715H19.3472ZM19.3571 35.3955C19.4489 35.2511 19.5115 35.1765 19.5383 35.1479C19.5664 35.1177 19.531 35.1639 19.422 35.2262L17.0092 31.0038C16.214 31.4582 15.6529 32.158 15.2542 32.7845L19.3571 35.3955ZM19.3822 35.2485L28.4172 30.3085L26.0841 26.0415L17.0491 30.9815L19.3822 35.2485ZM27.2506 25.7434H10.1556V30.6066H27.2506V25.7434ZM10.1556 25.7434C10.2193 25.7434 10.3205 25.7566 10.433 25.804C10.5442 25.8508 10.6127 25.9083 10.64 25.9356L7.20125 29.3744C7.98938 30.1625 9.01378 30.6066 10.1556 30.6066V25.7434ZM10.64 25.9356C10.6673 25.9629 10.7249 26.0315 10.7717 26.1427C10.819 26.2552 10.8322 26.3563 10.8322 26.42H5.96906C5.96906 27.5619 6.41313 28.5863 7.20125 29.3744L10.64 25.9356ZM10.8322 26.42V17.255H5.96906V26.42H10.8322ZM10.8322 17.255C10.8322 17.3187 10.819 17.4198 10.7717 17.5323C10.7249 17.6435 10.6673 17.7121 10.64 17.7394L7.20125 14.3006C6.41313 15.0887 5.96906 16.1131 5.96906 17.255H10.8322ZM10.64 17.7394C10.6127 17.7667 10.5442 17.8242 10.433 17.871C10.3205 17.9184 10.2193 17.9316 10.1556 17.9316V13.0684C9.01378 13.0684 7.98938 13.5125 7.20125 14.3006L10.64 17.7394ZM10.1556 17.9316H43.4356V13.0684H10.1556V17.9316ZM43.4356 17.9316C43.3719 17.9316 43.2708 17.9184 43.1583 17.871C43.0471 17.8242 42.9786 17.7667 42.9512 17.7394L46.39 14.3006C45.6019 13.5125 44.5775 13.0684 43.4356 13.0684V17.9316ZM42.9513 17.7394C42.924 17.7121 42.8664 17.6435 42.8196 17.5323C42.7722 17.4198 42.7591 17.3187 42.7591 17.255H47.6222C47.6222 16.1131 47.1782 15.0887 46.39 14.3006L42.9513 17.7394ZM42.7591 17.255V25.51H47.6222V17.255H42.7591ZM42.7591 25.51C42.7591 25.7584 42.7091 25.8915 42.666 25.9706L46.9353 28.2994C47.4121 27.4252 47.6222 26.4749 47.6222 25.51H42.7591ZM42.7156 25.884C42.6074 26.0643 42.5548 26.0774 42.6019 26.048L45.1794 30.172C45.9198 29.7092 46.4739 29.0724 46.8857 28.386L42.7156 25.884ZM42.5418 26.0868L34.9368 31.1568L37.6344 35.2032L45.2394 30.1332L42.5418 26.0868ZM33.8541 33.18V33.375H38.7172V33.18H33.8541ZM35.7182 35.7394C37.6717 36.2083 39.4179 36.9036 40.9723 37.8135L43.429 33.6165C41.4301 32.4464 39.2329 31.5817 36.8531 31.0106L35.7182 35.7394ZM40.9723 37.8135C42.3747 38.6344 43.4815 39.7538 44.3144 41.2114L48.5368 38.7986C47.2897 36.6162 45.5799 34.8756 43.429 33.6165L40.9723 37.8135ZM44.3272 41.2334C45.0891 42.535 45.5541 44.3302 45.5541 46.765H50.4172C50.4172 43.7398 49.8422 41.0283 48.5241 38.7766L44.3272 41.2334ZM45.5541 46.765C45.5541 49.2033 44.8108 51.2736 43.3168 53.0804L47.0645 56.1796C49.2971 53.4797 50.4172 50.3067 50.4172 46.765H45.5541ZM43.3136 53.0842C41.8056 54.9154 39.6624 56.43 36.7634 57.5661L38.5379 62.0939C42.0522 60.7167 44.9357 58.7646 47.0676 56.1758L43.3136 53.0842ZM36.7798 57.5597C33.9471 58.6462 30.6118 59.2184 26.7306 59.2184V64.0816C31.0828 64.0816 35.0275 63.4404 38.5214 62.1003L36.7798 57.5597Z" fill="#4BA5E7"/>
</svg>
